<?xml version="1.0" encoding="utf-8"?>
<!-- Generator: Adobe Illustrator 28.2.0, SVG Export Plug-In . SVG Version: 6.00 Build 0)  -->
<svg version="1.1" id="Layer_1" xmlns="http://www.w3.org/2000/svg" xmlns:xlink="http://www.w3.org/1999/xlink" x="0px" y="0px"
	 viewBox="0 0 1536 1024" style="enable-background:new 0 0 1536 1024;" xml:space="preserve">
<style type="text/css">
	.st0{fill:#34E096;}
	.st1{fill:#080707;}
	.st2{fill:#070707;}
	.st3{fill:#050505;}
	.st4{fill:#060606;}
	.st5{fill:#050504;}
	.st6{fill:#040404;}
	.st7{fill:#FCFEFD;}
	.st8{fill:#FCFDFC;}
	.st9{fill:#FDFDFD;}
	.st10{fill:#FCFDFD;}
	.st11{fill:#FCFCFC;}
	.st12{fill:#171716;}
</style>
<path class="st0" d="M574.4,416c-3.5,4.7-21.4,29.1-24.9,33.8c-2,2.8-4.1,5.6-6.1,8.3c-1.9,2.6-3.8,5.2-5.8,7.8
	c-0.7,0.9-1.4,1.9-2.1,2.8c-8.4,11.9-15,13.2-28.9,12.8c-3.1-0.1-6.3-0.2-9.4-0.2c-0.7,0-1.4,0-2,0c-5.7-0.1-11.5-0.1-17.2-0.2
	c-0.7,0-0.7,0-1.4,0c-4,0-8.1,0-12.1,0c-2.5,0-5,0-7.5,0c-0.8,0-1.5,0-2.2,0c-15.5,0-15.5,0-20.5-4.1c-3.3-3.5-4.2-6.6-5.1-11.3
	c-0.2-0.7-0.3-1.5-0.5-2.2c-0.5-2.4-1.1-4.8-1.6-7.2c-0.3-1.4-0.6-2.7-0.9-4.1c-1.2-5.9-2.5-11.8-3.7-17.7c-0.8-4-1.7-8.1-2.5-12.1
	c-0.3-1.4-0.5-2.8-0.9-4.1c-1-4.7-2-9.4-3.1-14.1c-2.7-11.9-2.7-11.9,0.7-17.4c4-5.9,8.1-11.6,12.4-17.3c0.7-1,1.5-2,2.1-3
	c1.9-2.7,3.9-5.3,5.8-7.9c1.2-1.7,2.4-3.3,3.7-5c3.8-5.2,7.6-10.4,11.5-15.5c4.4-6,8.8-11.9,13.2-17.9c3.4-4.7,6.8-9.2,10.2-13.9
	c2-2.8,4.1-5.5,6.1-8.3c1.9-2.6,3.8-5.2,5.7-7.8c0.7-0.9,1.4-1.9,2.1-2.8c1-1.3,1.9-2.6,2.9-3.9c0.3-0.4,0.6-0.8,0.8-1.1
	c3.1-4.1,5.9-5.8,10.9-6.5c1.3-0.2,1.3-0.2,2.5-0.4c7.1-0.2,12,4.2,17.4,8.2c0.9,0.7,1.8,1.4,2.7,2c2.4,1.8,4.9,3.6,7.3,5.4
	c2.6,1.9,5.1,3.8,7.7,5.7c4.3,3.2,8.6,6.4,12.9,9.6c5,3.7,9.9,7.4,14.9,11c4.3,3.2,8.6,6.3,12.8,9.5c2.5,1.9,5.1,3.8,7.6,5.7
	c2.4,1.8,4.8,3.6,7.2,5.3c0.9,0.7,1.8,1.3,2.6,1.9c9.9,7.3,9.9,7.3,11.7,13.2c1.1,7.8,0.3,11.2-4.1,17.7c-0.4,0.7-0.4,0.7-0.9,1.3
	c-3.4,4.9-6.9,9.7-10.4,14.4c-0.7,1-1.5,2-2.2,3c-2.4,3.2-4.8,6.4-7.1,9.6c-0.8,1.1-1.6,2.2-2.4,3.4
	C581.3,406.8,577.9,411.4,574.4,416"/>
<path class="st1" d="M739,438c88.8,0,88.8,0,105.8,16.6c10.7,11.9,14.5,26,14.4,41.7c-0.8,14.3-6.3,26.4-16.2,36.7
	c-20.4,17.7-46.9,15.3-72,15c0,15.8,0,31.7,0,48c-10.6,0-21.1,0-32,0C739,543.9,739,491.7,739,438z"/>
<path class="st2" d="M245,438c83.3,0,83.3,0,101,13c0.9,0.6,1.7,1.2,2.6,1.8c9.4,8.9,15.1,21.8,15.6,34.7c0.3,18,0.3,18-3.2,26.5
	c-0.3,0.8-0.7,1.7-1,2.5c-5.4,12.1-15.6,21.4-27.7,26.7c-12.9,4.5-25.3,5.2-38.8,4.9c-5.5-0.1-10.9-0.1-16.6-0.2c0,15.8,0,31.7,0,48
	c-10.6,0-21.1,0-32,0C245,543.9,245,491.7,245,438z"/>
<path class="st3" d="M939.3,489.5c3.2,2.3,5.9,4.7,8.7,7.5c0.3-3.3,0.7-6.6,1-10c9.2,0,18.5,0,28,0c0,36,0,71.9,0,109
	c-9.2,0-18.5,0-28,0c-0.5-4.5-0.5-4.5-1-9c-0.9,0.9-1.8,1.8-2.8,2.7c-10,8.6-22.6,10.1-35.2,9.5c-12.9-1.2-24.4-9-33-18.2
	c-12.1-15.4-13.1-33.2-12-52c1.8-14.3,9.9-27.1,21-36C901.5,483,923,478.7,939.3,489.5z"/>
<path class="st4" d="M704.6,494.8c10.6,8.8,16.1,21.1,19.4,34.2c0,6.9,0,13.9,0,21c-27.4,0-54.8,0-83,0c3.8,13.2,3.8,13.2,13.6,22
	c7.5,3.8,15.4,4,23.5,1.9c7.2-2.4,12.2-6.2,15.9-12.9c9.2,1.3,18.1,3.5,27,6c-4.7,11.7-14.7,21.5-26,27c-17.4,6.5-35.2,7.5-52.4-0.3
	c-13.9-6.7-22.6-16.8-27.9-31.3c-0.3-0.8-0.5-1.6-0.8-2.4c-0.2-0.7-0.5-1.3-0.7-2c-4.3-15.1-1.6-33.1,5.4-46.9
	c8.6-14.4,20.4-22.4,36.3-27.1C672.2,479.8,690.4,484.9,704.6,494.8z"/>
<path class="st4" d="M589.6,494c6.9,6,14.3,12.8,16.4,22c-6,2.6-12.2,4.8-18.4,6.9c-1,0.4-1,0.4-2.1,0.7c-4.9,1.6-4.9,1.6-7.8,0.8
	c-2-1.6-3.5-3.3-5.1-5.3c-4.5-5.3-9.4-7.7-16.3-8.3c-10.3-0.3-17,2.3-24.6,9.3c-6.2,6.9-7,14.6-6.9,23.5c0.5,8.4,3.2,15.3,9.2,21.4
	c6.7,5.4,14.3,8,23,7c7.6-1.3,12.8-4.3,18-10c2-2.7,2-2.7,3-5c0.8,0.2,0.8,0.2,1.6,0.5c8.8,2.7,17.6,5.1,26.4,7.5
	c-0.9,9.3-8,16.6-14.9,22.4c-14.4,10.7-31.3,13.1-48.7,11.2c-15-2.6-29-10.1-38.5-22.2c-9.3-13.7-12.4-31.3-9.6-47.6
	c3.4-14.6,11.2-27.8,24-36C539.5,479.8,569.2,478.2,589.6,494z"/>
<path class="st5" d="M994,436c9.9,0,19.8,0,30,0c0,3.9,0,7.8,0,11.8c0.1,12.8,0.1,25.6,0.2,38.4c0,7.8,0.1,15.5,0.1,23.3
	c0,6.8,0.1,13.5,0.1,20.3c0,3.6,0,7.2,0,10.8c0,4,0,8,0.1,12c0,1.8,0,1.8,0,3.6c0,1.6,0,1.6,0,3.3c0,0.9,0,1.9,0,2.9
	c0.5,3.2,1.5,5.1,3.4,7.6c4.2,1.5,4.2,1.5,14,2c0,7.9,0,15.8,0,24c-10.5,2.6-24.3,4.9-34.3-0.8c-0.6-0.4-1.1-0.8-1.7-1.2
	c-1.1-0.7-2.1-1.4-3.2-2.1c-6.4-6.7-8.9-14.6-8.9-23.7c0-1.2,0-2.3,0-3.5c0-1.3,0-2.5,0-3.9s0-2.7,0-4.1c0-3.7,0-7.4,0-11.1
	c0-3.9,0-7.7,0-11.6c0-7.3,0-14.6,0-21.9c0-8.3,0-16.6,0-24.9C994,470.2,994,453.1,994,436z"/>
<path class="st5" d="M439,484c0,10.2,0,20.5,0,31c-4.6,0-9.2,0-14,0c-6.4,1.5-10.5,3.2-15,8c-3.7,7.4-3.5,14.8-3.5,23
	c0,1.4,0,2.9-0.1,4.3c0,3.8-0.1,7.6-0.1,11.3c0,4.5-0.1,9.1-0.1,13.6c-0.1,6.9-0.1,13.8-0.2,20.7c-9.6,0-19.1,0-29,0
	c0-36,0-71.9,0-109c9.6,0,19.1,0,29,0c0.3,4,0.7,7.9,1,12c1.1-1.2,2.1-2.4,3.2-3.6C418.5,487.1,427.6,484,439,484z"/>
<path class="st6" d="M449,486c9.9,0,19.8,0,30,0c0,36.3,0,72.6,0,110c-9.9,0-19.8,0-30,0C449,559.7,449,523.4,449,486z"/>
<path class="st7" d="M521.8,426.6c-2.5-0.6-3.4-1.3-5.2-3.2c-1.3-2.6-1.5-3.9-1.1-6.8c2.3-4.2,5.3-8.1,8.2-12
	c0.6-0.8,0.6-0.8,1.2-1.7c1.4-1.8,2.7-3.7,4.1-5.5c1-1.3,1.9-2.6,2.9-3.9c2-2.7,4-5.3,6-8.1c2.5-3.4,5.1-6.9,7.6-10.4
	c2-2.7,3.9-5.3,5.9-7.9c1-1.3,1.9-2.5,2.8-3.8c1.3-1.8,2.6-3.5,4-5.3c0.4-0.5,0.8-1.1,1.2-1.6c0.3-0.5,0.7-1,1.1-1.5
	c0.3-0.4,0.6-0.8,1-1.3c1.9-2.2,3.1-2.8,6.1-3.1c2.9,0,4.4,1,6.6,3c1.5,2,1.8,4.1,1.7,6.6c-0.7,1.4-0.7,1.4-1.6,2.8
	c-0.3,0.5-0.7,1.1-1.1,1.6c-1.8,2.6-3.6,5.1-5.5,7.6c-0.4,0.5-0.8,1.1-1.2,1.7c-1.4,1.8-2.7,3.7-4.1,5.5c-1,1.3-1.9,2.6-2.9,3.9
	c-2,2.7-4,5.3-6,8.1c-2.5,3.4-5.1,6.9-7.7,10.4c-2,2.7-4,5.3-5.9,7.9c-1,1.3-1.9,2.5-2.8,3.8c-1.3,1.8-2.6,3.5-4,5.3
	c-0.4,0.5-0.8,1.1-1.2,1.6c-0.3,0.5-0.7,1-1.1,1.5c-0.3,0.4-0.6,0.8-1,1.3C527.6,425.9,525.3,426.5,521.8,426.6z"/>
<path class="st8" d="M494.3,407.9c-2.5-0.6-3.4-1.3-5.2-3.2c-1.3-2.6-1.5-3.9-1.1-6.8c2.5-4.9,6.2-9.2,9.4-13.6
	c0.5-0.7,1.1-1.5,1.6-2.1c1.1-1.5,2.2-3,3.3-4.4c1.4-1.9,2.8-3.8,4.2-5.7c1.4-1.8,2.7-3.7,4.1-5.5c0.5-0.7,1-1.4,1.5-2.1
	c2.5-3.3,5-6.5,7.7-9.6c1.7-1.9,3.1-4,4.7-6.1c0.3-0.5,0.6-0.8,1-1.3c1-1.4,2-2.7,3-4c1.3-1.8,2.7-3.6,4-5.4
	c0.3-0.4,0.6-0.8,0.9-1.2c2.6-3.7,2.6-3.7,5.6-4.4c3-0.2,4.4,0.4,6.9,1.9c2.1,2,2.3,4.3,2.4,7.1c-0.6,2.6-1.9,4.2-3.6,6.1
	c-2.4,2.8-4.7,5.7-6.8,8.7c-0.4,0.5-0.8,1.1-1.2,1.7c-0.8,1.1-1.8,2.4-2.6,3.5c-1.4,1.8-2.7,3.7-4.1,5.6c-2.9,3.9-5.8,7.9-8.6,11.8
	c-3.3,4.6-6.7,9.1-10.1,13.7c-1.4,1.8-2.7,3.7-4,5.5c-0.8,1.1-1.6,2.2-2.5,3.4c-0.4,0.5-0.7,1-1.1,1.5c-0.3,0.5-0.7,0.9-1,1.4
	c-0.3,0.4-0.6,0.8-0.9,1.2C499.7,407.6,497.1,407.7,494.3,407.9z"/>
<path class="st9" d="M935.4,512.8c7,5.2,12.1,12.6,13.6,21.2c1,12-0.7,21.9-8.4,31.3c-5.3,5.6-11.3,7.7-18.9,8
	c-8.3-0.2-14.9-3.5-20.7-9.4c-6.3-9.2-8.5-18.8-6.5-29.8c2.2-9,5.8-15.8,13.5-21.2C915.9,508.2,927.4,507.9,935.4,512.8z"/>
<path class="st10" d="M771,467c5.2-0.1,10.5-0.1,15.9-0.2c1.6,0,3.3-0.1,4.9-0.1c10.9-0.1,20.4,0.4,28.5,8.3
	c5.6,6.6,6.4,13.2,6.1,21.6c-0.9,8-4,12.9-10.3,17.9c-7.1,4.9-14.6,5.6-23.1,5.5c-1.7,0-1.7,0-3.5,0c-1.5,0-2.9,0-4.4,0
	c-7,0-7,0-14.1-0.1C771,502.5,771,485,771,467z"/>
<path class="st11" d="M277,467c5.1-0.1,10.1-0.1,15.4-0.2c1.6,0,3.2-0.1,4.8-0.1c9.8-0.1,19.3,0.4,27.3,6.6
	c5.8,6.2,7.9,14.4,7.8,22.7c-0.6,6.9-3,12.2-8.1,16.9c-7.4,5.9-15,7.2-24.3,7.2c-1.2,0-2.4,0-3.6,0c-2.3,0-2.3,0-4.6,0
	c-4.8,0-9.7,0-14.6-0.1C277,502.5,277,485,277,467z"/>
<path class="st7" d="M457.1,463.9c-2.2-1.3-2.2-1.3-3.8-2.8c-0.5-0.4-1.1-0.9-1.6-1.3c-3.4-3.7-5.2-8.3-5.3-13.3
	c0.5-5.9,2.3-10.7,6.6-14.9c4.2-3.1,9.5-4.1,14.6-3.5c4.6,1.2,8.7,4.5,11.3,8.4c2.8,5.4,3.7,10.9,2,16.8c-2,5-5.1,8.4-9.9,10.9
	C466.2,466.1,462,465.6,457.1,463.9z"/>
<path class="st9" d="M682.8,509.6c6.6,4.2,10.1,10,12.2,17.4c0,1.3,0,2.6,0,4c-17.8,0-35.6,0-54,0c2.1-9.6,4.7-15.5,13-21
	C662.5,504.9,673.9,505.5,682.8,509.6z"/>
<path class="st12" d="M436,484c1,0,2,0,3,0c0,10.2,0,20.5,0,31c-2.3-0.3-4.6-0.7-7-1c0-0.3,0-0.7,0-1c1.6,0,3.3,0,5,0
	C436.7,503.4,436.3,493.9,436,484z"/>
<path class="st8" d="M465.2,388c-2.5-0.6-3.4-1.3-5.2-3.2c-1.3-2.6-1.5-3.9-1.1-6.8c2.5-4.9,6.2-9.2,9.4-13.6
	c0.5-0.7,1.1-1.5,1.6-2.1c1.1-1.5,2.2-3,3.3-4.4c1.4-1.9,2.8-3.8,4.2-5.7c1.4-1.8,2.7-3.7,4.1-5.5c0.5-0.7,1-1.4,1.5-2.1
	c2.5-3.3,5-6.5,7.7-9.6c1.7-1.9,3.1-4,4.7-6.1c0.3-0.5,0.6-0.8,1-1.3c1-1.4,2-2.7,3-4c1.3-1.8,2.7-3.6,4-5.4
	c0.3-0.4,0.6-0.8,0.9-1.2c2.6-3.7,2.6-3.7,5.6-4.4c3-0.2,4.4,0.4,6.9,1.9c2.1,2,2.3,4.3,2.4,7.1c-0.6,2.6-1.9,4.2-3.6,6.1
	c-2.4,2.8-4.7,5.7-6.8,8.7c-0.4,0.5-0.8,1.1-1.2,1.7c-0.8,1.1-1.8,2.4-2.6,3.5c-1.4,1.8-2.7,3.7-4.1,5.6c-2.9,3.9-5.8,7.9-8.6,11.8
	c-3.3,4.6-6.7,9.1-10.1,13.7c-1.4,1.8-2.7,3.7-4,5.5c-0.8,1.1-1.6,2.2-2.5,3.4c-0.4,0.5-0.7,1-1.1,1.5c-0.3,0.5-0.7,0.9-1,1.4
	c-0.3,0.4-0.6,0.8-0.9,1.2C470.7,387.7,468.1,387.9,465.2,388z"/>
</svg>
